<svg width="58" height="58" viewBox="0 0 58 58" fill="none" xmlns="http://www.w3.org/2000/svg">
<path d="M21.1873 1.92612C21.1873 1.41528 20.9844 0.925366 20.6232 0.564148C20.262 0.20293 19.7721 0 19.2612 0C18.7504 0 18.2605 0.20293 17.8993 0.564148C17.538 0.925366 17.3351 1.41528 17.3351 1.92612V3.85225H9.63061C8.09809 3.85225 6.62834 4.46104 5.54469 5.54469C4.46104 6.62834 3.85225 8.09809 3.85225 9.63061V21.1873C3.85225 22.7199 4.46104 24.1896 5.54469 25.2733C6.62834 26.3569 8.09809 26.9657 9.63061 26.9657H19.6002C19.7646 26.524 19.9854 26.1067 20.2628 25.7137C20.9177 24.7892 21.8422 24.0958 22.9209 23.7067L24.7699 23.1135H9.63061C9.11977 23.1135 8.62986 22.9105 8.26864 22.5493C7.90742 22.1881 7.70449 21.6982 7.70449 21.1873V9.63061C7.70449 9.11977 7.90742 8.62986 8.26864 8.26864C8.62986 7.90742 9.11977 7.70449 9.63061 7.70449H28.8918C29.4027 7.70449 29.8926 7.90742 30.2538 8.26864C30.615 8.62986 30.818 9.11977 30.818 9.63061V16.8613L31.3303 15.2934C31.7541 14.1377 32.4475 13.2132 33.372 12.5583C33.7803 12.2655 34.2131 12.0383 34.6702 11.8765V9.63061C34.6702 8.09809 34.0614 6.62834 32.9778 5.54469C31.8941 4.46104 30.4244 3.85225 28.8918 3.85225H21.1873V1.92612ZM5.77837 32.7441H20.8522C21.4521 33.3553 22.189 33.8148 23.0018 34.0847L27.0851 35.4329C27.6668 35.6294 28.2061 35.9376 28.8995 36.554L28.9381 36.5963H5.77837C5.26753 36.5963 4.77761 36.7993 4.41639 37.1605C4.05518 37.5217 3.85225 38.0116 3.85225 38.5224V39.8707C3.85225 43.5111 5.42396 45.938 8.02037 47.5521C10.7324 49.2394 14.6578 50.0792 19.2612 50.0792C23.8955 50.0792 27.8209 49.2355 30.5213 47.5521C31.6077 46.878 32.5129 46.0574 33.1986 45.0636L33.4105 45.2369C33.9498 45.6221 34.5277 45.8918 35.144 46.0459C34.6987 47.0042 34.5679 48.0789 34.7704 49.1161C34.0944 49.76 33.3533 50.3319 32.5592 50.8227C28.9997 53.0454 24.2576 53.9314 19.2612 53.9314C14.2918 53.9314 9.54972 53.0377 5.98639 50.8227C2.30749 48.5383 0 44.8979 0 39.8707V38.5224C0 36.9899 0.608791 35.5202 1.69244 34.4365C2.7761 33.3529 4.24585 32.7441 5.77837 32.7441ZM16.372 15.409C16.372 16.1752 16.0676 16.9101 15.5258 17.4519C14.984 17.9938 14.2491 18.2982 13.4829 18.2982C12.7166 18.2982 11.9817 17.9938 11.4399 17.4519C10.8981 16.9101 10.5937 16.1752 10.5937 15.409C10.5937 14.6427 10.8981 13.9078 11.4399 13.366C11.9817 12.8242 12.7166 12.5198 13.4829 12.5198C14.2491 12.5198 14.984 12.8242 15.5258 13.366C16.0676 13.9078 16.372 14.6427 16.372 15.409ZM25.0396 18.2982C25.8059 18.2982 26.5407 17.9938 27.0826 17.4519C27.6244 16.9101 27.9288 16.1752 27.9288 15.409C27.9288 14.6427 27.6244 13.9078 27.0826 13.366C26.5407 12.8242 25.8059 12.5198 25.0396 12.5198C24.2733 12.5198 23.5385 12.8242 22.9966 13.366C22.4548 13.9078 22.1504 14.6427 22.1504 15.409C22.1504 16.1752 22.4548 16.9101 22.9966 17.4519C23.5385 17.9938 24.2733 18.2982 25.0396 18.2982ZM38.0525 16.4953L39.3931 20.6211C39.8088 21.876 40.5123 23.0162 41.4475 23.9506C42.3826 24.8851 43.5233 25.5878 44.7785 26.0027L48.9081 27.3432L48.989 27.3664C49.3072 27.4784 49.5828 27.6864 49.7778 27.9617C49.9727 28.237 50.0774 28.566 50.0774 28.9034C50.0774 29.2407 49.9727 29.5698 49.7778 29.8451C49.5828 30.1204 49.3072 30.3284 48.989 30.4404L44.8632 31.781C43.6073 32.1954 42.4658 32.8979 41.53 33.8323C40.5942 34.7668 39.8901 35.9073 39.474 37.1626L38.1334 41.2845C38.0214 41.6027 37.8133 41.8783 37.538 42.0733C37.2627 42.2682 36.9337 42.3729 36.5963 42.3729C36.259 42.3729 35.9299 42.2682 35.6546 42.0733C35.3793 41.8783 35.1713 41.6027 35.0593 41.2845L33.7187 37.1626C33.237 35.7032 32.3674 34.4022 31.2032 33.399C30.3613 32.668 29.3834 32.1103 28.3256 31.7579L24.196 30.4173C23.8777 30.3053 23.6021 30.0973 23.4072 29.822C23.2122 29.5467 23.1075 29.2176 23.1075 28.8803C23.1075 28.5429 23.2122 28.2139 23.4072 27.9386C23.6021 27.6633 23.8777 27.4552 24.196 27.3432L28.3256 26.0027C29.5658 25.5771 30.6904 24.8696 31.6108 23.9358C32.5313 23.002 33.2225 21.8673 33.6301 20.6211L34.9707 16.4992C35.0819 16.1796 35.2898 15.9026 35.5656 15.7066C35.8414 15.5106 36.1713 15.4052 36.5097 15.4052C36.848 15.4052 37.178 15.5106 37.4537 15.7066C37.7295 15.9026 37.9374 16.1796 38.0486 16.4992M56.9439 47.0513L53.9969 46.096C53.1005 45.798 52.2858 45.2955 51.6171 44.6283C50.9485 43.961 50.4444 43.1472 50.1447 42.2514L49.1893 39.3045C49.1096 39.0769 48.9611 38.8798 48.7644 38.7403C48.5677 38.6008 48.3325 38.5259 48.0914 38.5259C47.8503 38.5259 47.6151 38.6008 47.4185 38.7403C47.2218 38.8798 47.0733 39.0769 46.9935 39.3045L46.0305 42.2514C45.7374 43.1403 45.2432 43.9495 44.5864 44.6163C43.9297 45.2831 43.128 45.7894 42.2437 46.096L39.2968 47.0513C39.1272 47.1117 38.9738 47.2105 38.8488 47.34C38.7237 47.4695 38.6303 47.6262 38.5758 47.7978C38.5214 47.9694 38.5074 48.1512 38.5348 48.3291C38.5623 48.5071 38.6306 48.6762 38.7343 48.8234C38.873 49.016 39.0695 49.1701 39.2968 49.2471L42.2437 50.2063C43.1418 50.5058 43.9576 51.0106 44.6263 51.6807C45.2951 52.3508 45.7983 53.1676 46.096 54.0663L47.0513 57.0094C47.1311 57.2369 47.2796 57.4341 47.4762 57.5735C47.6729 57.713 47.9081 57.7879 48.1492 57.7879C48.3903 57.7879 48.6255 57.713 48.8222 57.5735C49.0189 57.4341 49.1673 57.2369 49.2471 57.0094L50.2063 54.0663C50.5051 53.1702 51.0085 52.3559 51.6764 51.688C52.3444 51.02 53.1586 50.5167 54.0547 50.2179L57.0017 49.2625C57.2292 49.1828 57.4264 49.0343 57.5658 48.8376C57.7053 48.6409 57.7802 48.4057 57.7802 48.1646C57.7802 47.9235 57.7053 47.6883 57.5658 47.4917C57.4264 47.295 57.2292 47.1465 57.0017 47.0667L56.9439 47.0513Z" fill="white"/>
</svg>
