<svg width="270" height="54" viewBox="0 0 270 54" fill="none" xmlns="http://www.w3.org/2000/svg">
<path d="M260.355 5.46664C263.547 3.86304 266.252 5.95944 267.644 8.80453C268.16 9.85807 268.642 10.9585 268.887 12.1258C269.214 14.3856 269.02 17.0717 268.336 19.2391C267.321 22.4425 265.09 25.1203 262.123 26.6971C261.816 26.8571 261.372 27.0645 261.049 27.1883C263.001 27.9134 264.153 28.9815 265.044 30.8846C265.779 32.4555 265.893 33.7357 266.021 35.4041C266.541 42.1614 262.832 49.2472 256.559 52.0916C253.253 53.5909 248.997 53.8919 245.496 52.8329C245.826 50.8574 246.085 48.8604 246.407 46.8827C246.454 46.5944 246.495 46.3036 246.528 46.0135C247.388 46.3378 247.971 46.5228 248.88 46.661C252.859 47.2651 256.204 44.556 258.227 41.3797C258.518 40.9214 258.836 40.3951 259.033 39.8788C259.805 37.4782 260.407 34.2549 259.331 31.8905C258.797 30.701 257.806 29.7773 256.582 29.3289C256.022 29.1197 255.355 28.9599 254.757 28.9686C255.007 27.7155 255.311 26.0773 255.364 24.7879C261.172 24.441 263.294 14.7181 263.53 10.033C263.56 9.43819 263.188 8.77001 262.545 9.34164C259.118 12.325 256.971 16.6438 255.061 20.6942C252.978 24.9949 251.557 29.3927 250.234 33.9784C249.481 36.5973 248.783 39.2319 248.142 41.8807L242.105 41.8407L244.836 24.952C245.271 22.2835 245.73 19.6707 246.217 17.0145C246.813 13.7653 247.04 10.2793 246.917 6.98129C246.89 6.44738 246.852 5.81483 246.768 5.28598L252.761 5.31039C253.773 8.91839 251.729 18.5724 250.825 22.5213L251.023 22.4071C252.551 17.1971 254.821 11.439 258.336 7.22934C258.813 6.6575 259.702 5.79502 260.355 5.46664ZM222.591 14.2586C224.531 14.3303 226.781 14.2842 228.744 14.2879C228.293 15.1509 227.748 18.6988 227.591 19.8163C230.898 19.7195 234.278 19.4061 237.589 19.7723C237.885 19.8051 238.176 19.8642 238.466 19.9344C238.267 22.0325 237.762 24.3236 237.552 26.4286C233.961 26.0629 230.343 26.0187 226.744 26.2967C226.226 28.2414 225.91 31.7779 225.984 33.8075C227.644 36.1683 232.135 35.6267 234.528 35.1424C235.933 34.8542 237.316 34.4679 238.667 33.9862C238.33 36.1136 238.056 38.3869 237.685 40.495C237.612 40.5422 237.536 40.5855 237.459 40.6258C234.623 42.101 231.005 42.8366 227.896 41.8387C225.247 40.9685 223.042 39.0994 221.749 36.6288C219.406 32.0436 220.628 23.315 221.622 18.369C221.837 17.2971 222.255 15.2933 222.591 14.2586ZM210.578 6.65609C212.304 5.7921 215.584 4.06851 217.563 4.73129C218.079 4.90156 218.503 5.27594 218.736 5.76645C219.329 7.00965 218.884 8.73217 218.615 10.0067C218.369 11.1787 218.111 12.3488 217.842 13.5155C216.05 21.1137 213.806 28.5982 211.121 35.9286C210.647 37.2253 210.155 38.5156 209.647 39.7996C209.513 40.1358 209.153 41.09 208.99 41.3768C207.281 42.0088 203.258 42.8492 202.643 40.452C201.856 37.3839 201.782 33.8272 201.477 30.6532C201.357 29.41 201.187 28.2199 201.179 26.9725C201.132 24.4468 201.247 21.9567 201.381 19.4364C201.389 19.4134 201.397 19.3461 201.404 19.2557V19.2547C201.397 19.3457 201.389 19.4134 201.381 19.4364C201.345 19.4134 201.291 19.4035 201.248 19.3914C199.874 25.9164 197.795 32.2583 195.446 38.492C195.312 38.849 194.576 40.9947 194.296 41.1151C193.033 41.6512 189.182 42.66 188.333 41.1034C187.57 39.7035 187.578 37.4288 187.418 35.8485C186.82 27.8205 186.987 19.7601 187.285 11.7245C187.37 9.44726 187.567 7.13125 187.643 4.89633C189.571 4.89885 191.624 4.965 193.529 4.92758C193.283 8.01882 193.17 11.4517 193.062 14.5496L192.512 32.2147C194.057 28.8372 195.032 24.9901 196.083 21.4266C196.283 20.7471 196.536 20.0821 196.75 19.4051C197.128 18.1797 197.487 16.9485 197.826 15.7118C198.381 13.7031 198.922 11.69 199.449 9.67367C199.728 8.60847 200.01 7.41147 200.314 6.36117C205.392 4.95918 205.744 7.16045 205.424 11.6004C205.412 11.7694 205.43 12.1157 205.435 12.2996C205.464 13.4915 205.509 14.6849 205.565 15.8758C205.777 19.9555 206.026 24.0332 206.313 28.1082C206.411 29.5743 206.557 31.1365 206.625 32.5926C208.092 28.002 209.399 22.7966 210.643 18.1102L211.928 13.2479C212.345 11.6625 213.931 7.25106 210.436 9.41C210.351 9.46272 210.267 9.51668 210.183 9.57113C210.331 8.65012 210.4 7.53993 210.578 6.65609ZM233.96 5.20688C236.611 5.21636 239.261 5.32301 241.904 5.52621C241.732 7.61892 241.317 9.92198 241.109 12.0721C240.803 12.0613 240.465 12.0619 240.158 12.0711C237.372 12.1546 234.578 12.1113 231.793 12.1893C231.314 12.1879 230.82 12.2021 230.341 12.2166C227.387 12.3059 224.398 12.31 221.451 12.5282C221.49 11.8581 221.618 11.0326 221.698 10.3563C221.867 8.90673 222.044 7.45814 222.228 6.01059C223.451 5.85989 224.633 5.67288 225.873 5.55355C227.701 5.39305 229.534 5.28501 231.369 5.23031C232.136 5.18398 233.173 5.20595 233.96 5.20688Z" fill="white"/>
<path d="M2.7088 42V6.03068H13.2776C15.4387 6.03068 17.1853 6.43033 18.5175 7.22965C19.8793 8.02897 20.8711 9.19834 21.4928 10.7378C22.1441 12.2476 22.4697 14.0831 22.4697 16.2442C22.4697 18.5829 22.0701 20.4776 21.2707 21.9282C20.4714 23.3492 19.3465 24.3854 17.8958 25.0367C16.4748 25.688 14.7874 26.0136 12.8335 26.0136H9.28097V42H2.7088ZM9.28097 21.3954H11.7677C12.9519 21.3954 13.8697 21.2325 14.5209 20.9069C15.2019 20.5516 15.6607 20.0039 15.8976 19.2638C16.164 18.4941 16.2972 17.4728 16.2972 16.1998C16.2972 14.8972 16.1936 13.8462 15.9864 13.0469C15.8087 12.218 15.3943 11.6111 14.743 11.2262C14.1213 10.8414 13.1295 10.649 11.7677 10.649H9.28097V21.3954ZM36.3398 42.4885C33.7939 42.4885 31.766 42.0148 30.2561 41.0675C28.7463 40.1201 27.6658 38.7583 27.0145 36.9821C26.3632 35.2058 26.0375 33.1039 26.0375 30.6763V17.2211C26.0375 14.7936 26.3632 12.7213 27.0145 11.0042C27.6658 9.25755 28.7463 7.92536 30.2561 7.00762C31.766 6.08988 33.7939 5.63102 36.3398 5.63102C38.945 5.63102 40.9877 6.08988 42.4679 7.00762C43.9778 7.92536 45.0583 9.25755 45.7096 11.0042C46.3905 12.7213 46.731 14.7936 46.731 17.2211V30.7207C46.731 33.1187 46.3905 35.2058 45.7096 36.9821C45.0583 38.7287 43.9778 40.0905 42.4679 41.0675C40.9877 42.0148 38.945 42.4885 36.3398 42.4885ZM36.3398 37.6482C37.4352 37.6482 38.2345 37.4113 38.7378 36.9377C39.2707 36.464 39.6259 35.8127 39.8036 34.9838C39.9812 34.1548 40.07 33.2519 40.07 32.275V15.7113C40.07 14.7048 39.9812 13.8018 39.8036 13.0025C39.6259 12.2032 39.2707 11.5815 38.7378 11.1374C38.2345 10.6638 37.4352 10.4269 36.3398 10.4269C35.3037 10.4269 34.5192 10.6638 33.9863 11.1374C33.4534 11.5815 33.0982 12.2032 32.9205 13.0025C32.7429 13.8018 32.6541 14.7048 32.6541 15.7113V32.275C32.6541 33.2519 32.7281 34.1548 32.8761 34.9838C33.0538 35.8127 33.409 36.464 33.9419 36.9377C34.4748 37.4113 35.2741 37.6482 36.3398 37.6482ZM52.0365 42V6.03068H60.6514C63.079 6.03068 65.1217 6.32672 66.7795 6.91881C68.467 7.48129 69.7399 8.45824 70.5985 9.84964C71.4866 11.241 71.9307 13.1357 71.9307 15.5337C71.9307 16.9843 71.7974 18.2869 71.531 19.4415C71.2646 20.596 70.8057 21.5878 70.1544 22.4167C69.5327 23.216 68.6594 23.8377 67.5344 24.2818L72.5524 42H65.9802L61.6283 25.5252H58.6087V42H52.0365ZM58.6087 21.3954H60.6514C61.9244 21.3954 62.9309 21.2177 63.671 20.8625C64.4408 20.4776 64.9884 19.8855 65.3141 19.0862C65.6397 18.2573 65.8026 17.2063 65.8026 15.9333C65.8026 14.1275 65.4621 12.7805 64.7812 11.8923C64.1299 10.9746 62.8717 10.5157 61.0066 10.5157H58.6087V21.3954ZM80.4491 42V10.871H74.7206V6.03068H92.6609V10.871H87.0213V42H80.4491ZM92.6484 42L99.8423 6.03068H106.859L114.052 42H107.969L106.548 33.696H100.286L98.8209 42H92.6484ZM100.952 29.5218H105.837L103.395 14.4235L100.952 29.5218ZM118.114 42V6.03068H124.686V37.4705H133.39V42H118.114Z" fill="white"/>
<path d="M177.369 18.087C179.727 15.7292 178.651 12.9753 177.369 11.6361L171.71 5.97747C169.334 3.6197 166.599 4.69485 165.259 5.97747L162.053 9.2029H157.167C153.584 9.2029 151.509 11.0891 150.452 13.2583L142.078 21.6331V29.1779L140.738 30.4983C138.381 32.8749 139.456 35.6099 140.738 36.9492L146.397 42.6078C147.416 43.6264 148.51 44.0036 149.547 44.0036C150.886 44.0036 152.112 43.3434 152.848 42.6078L157.941 37.4962H164.712C167.919 37.4962 169.541 35.4968 170.126 33.5351C172.257 32.9692 173.427 31.3471 173.898 29.7627C176.822 29.0082 177.916 26.2354 177.916 24.2926V18.634H176.803L177.369 18.087ZM174.143 24.2926C174.143 25.1414 173.785 26.1789 172.257 26.1789H170.371V28.0651C170.371 28.9139 170.013 29.9513 168.485 29.9513H166.599V31.8375C166.599 32.6863 166.24 33.7237 164.712 33.7237H156.394L150.207 39.9105C149.623 40.4575 149.283 40.1369 149.076 39.9294L143.436 34.3085C142.889 33.7237 143.209 33.3842 143.417 33.1767L145.85 30.7246V23.1798L149.623 19.4073V22.4064C149.623 24.6888 151.132 28.0651 155.281 28.0651C159.431 28.0651 160.94 24.6888 160.94 22.4064H174.143V24.2926ZM174.69 15.4086L171.484 18.634H157.167V22.4064C157.167 23.2552 156.809 24.2926 155.281 24.2926C153.753 24.2926 153.395 23.2552 153.395 22.4064V16.7478C153.395 15.8801 153.716 12.9753 157.167 12.9753H163.599L167.9 8.67476C168.485 8.12776 168.824 8.44842 169.032 8.6559L174.672 14.2768C175.219 14.8616 174.898 15.2011 174.69 15.4086Z" fill="white"/>
</svg>
